HIERARCHY
ROOT mixamorig:Hips
{
	OFFSET -0.000008 104.274872 1.554316
	CHANNELS 6 Xposition Yposition Zposition Xrotation Yrotation Zrotation
	JOINT mixamorig:Spine
	{
		OFFSET -0.000005 10.181595 0.131519
		CHANNELS 6 Xposition Yposition Zposition Xrotation Yrotation Zrotation
		JOINT mixamorig:Spine1
		{
			OFFSET -0.000000 9.893959 -1.470707
			CHANNELS 6 Xposition Yposition Zposition Xrotation Yrotation Zrotation
			JOINT mixamorig:Spine2
			{
				OFFSET -0.000000 9.220757 -1.370641
				CHANNELS 6 Xposition Yposition Zposition Xrotation Yrotation Zrotation
				JOINT mixamorig:Neck
				{
					OFFSET 0.000001 16.740417 -2.049036
					CHANNELS 6 Xposition Yposition Zposition Xrotation Yrotation Zrotation
					JOINT mixamorig:Head
					{
						OFFSET 0.000000 9.617874 1.685006
						CHANNELS 6 Xposition Yposition Zposition Xrotation Yrotation Zrotation
						JOINT mixamorig:HeadTop_End
						{
							OFFSET 0.000002 22.037354 7.501101
							CHANNELS 6 Xposition Yposition Zposition Xrotation Yrotation Zrotation
							End Site
							{
								OFFSET 0.000168 2310.654297 -282.823242
							}
						}
					}
				}
				JOINT mixamorig:RightShoulder
				{
					OFFSET -4.569970 11.014908 -2.160885
					CHANNELS 6 Xposition Yposition Zposition Xrotation Yrotation Zrotation
					JOINT mixamorig:RightArm
					{
						OFFSET -10.592851 -0.524811 -2.232101
						CHANNELS 6 Xposition Yposition Zposition Xrotation Yrotation Zrotation
						JOINT mixamorig:RightForeArm
						{
							OFFSET -27.841511 0.000031 -0.000004
							CHANNELS 6 Xposition Yposition Zposition Xrotation Yrotation Zrotation
							JOINT mixamorig:RightHand
							{
								OFFSET -28.328831 -0.000015 0.000015
								CHANNELS 6 Xposition Yposition Zposition Xrotation Yrotation Zrotation
								JOINT mixamorig:RightHandThumb1
								{
									OFFSET -2.464806 -1.573990 2.681852
									CHANNELS 6 Xposition Yposition Zposition Xrotation Yrotation Zrotation
									JOINT mixamorig:RightHandThumb2
									{
										OFFSET -3.215179 -1.872803 1.924282
										CHANNELS 6 Xposition Yposition Zposition Xrotation Yrotation Zrotation
										JOINT mixamorig:RightHandThumb3
										{
											OFFSET -2.654831 -1.527969 1.512609
											CHANNELS 6 Xposition Yposition Zposition Xrotation Yrotation Zrotation
											JOINT mixamorig:RightHandThumb4
											{
												OFFSET -2.018814 -1.152008 1.108052
												CHANNELS 6 Xposition Yposition Zposition Xrotation Yrotation Zrotation
												End Site
												{
													OFFSET -188.809540 -114.533607 132.431396
												}
											}
										}
									}
								}
								JOINT mixamorig:RightHandIndex1
								{
									OFFSET -9.108284 -0.517868 2.259835
									CHANNELS 6 Xposition Yposition Zposition Xrotation Yrotation Zrotation
									JOINT mixamorig:RightHandIndex2
									{
										OFFSET -3.699989 0.000000 0.001215
										CHANNELS 6 Xposition Yposition Zposition Xrotation Yrotation Zrotation
										JOINT mixamorig:RightHandIndex3
										{
											OFFSET -2.850006 0.000031 -0.000522
											CHANNELS 6 Xposition Yposition Zposition Xrotation Yrotation Zrotation
											JOINT mixamorig:RightHandIndex4
											{
												OFFSET -2.772186 -0.000015 -0.000020
												CHANNELS 6 Xposition Yposition Zposition Xrotation Yrotation Zrotation
												End Site
												{
													OFFSET -277.218445 0.000000 -0.050231
												}
											}
										}
									}
								}
								JOINT mixamorig:RightHandMiddle1
								{
									OFFSET -9.532516 -0.000031 -0.000023
									CHANNELS 6 Xposition Yposition Zposition Xrotation Yrotation Zrotation
									JOINT mixamorig:RightHandMiddle2
									{
										OFFSET -3.700005 -0.000015 0.003713
										CHANNELS 6 Xposition Yposition Zposition Xrotation Yrotation Zrotation
										JOINT mixamorig:RightHandMiddle3
										{
											OFFSET -2.949974 0.000015 -0.002054
											CHANNELS 6 Xposition Yposition Zposition Xrotation Yrotation Zrotation
											JOINT mixamorig:RightHandMiddle4
											{
												OFFSET -2.946640 0.000000 -0.000156
												CHANNELS 6 Xposition Yposition Zposition Xrotation Yrotation Zrotation
												End Site
												{
													OFFSET -294.664337 0.000000 -0.113670
												}
											}
										}
									}
								}
								JOINT mixamorig:RightHandRing1
								{
									OFFSET -9.103600 -0.043076 -1.865134
									CHANNELS 6 Xposition Yposition Zposition Xrotation Yrotation Zrotation
									JOINT mixamorig:RightHandRing2
									{
										OFFSET -3.379288 0.000000 -0.001055
										CHANNELS 6 Xposition Yposition Zposition Xrotation Yrotation Zrotation
										JOINT mixamorig:RightHandRing3
										{
											OFFSET -2.889687 -0.000015 0.000379
											CHANNELS 6 Xposition Yposition Zposition Xrotation Yrotation Zrotation
											JOINT mixamorig:RightHandRing4
											{
												OFFSET -2.638809 -0.000015 0.000941
												CHANNELS 6 Xposition Yposition Zposition Xrotation Yrotation Zrotation
												End Site
												{
													OFFSET -263.880371 0.000000 0.516020
												}
											}
										}
									}
								}
								JOINT mixamorig:RightHandPinky1
								{
									OFFSET -8.076683 -0.486710 -3.806280
									CHANNELS 6 Xposition Yposition Zposition Xrotation Yrotation Zrotation
									JOINT mixamorig:RightHandPinky2
									{
										OFFSET -3.600014 -0.000015 -0.003747
										CHANNELS 6 Xposition Yposition Zposition Xrotation Yrotation Zrotation
										JOINT mixamorig:RightHandPinky3
										{
											OFFSET -2.099983 0.000000 -0.005739
											CHANNELS 6 Xposition Yposition Zposition Xrotation Yrotation Zrotation
											JOINT mixamorig:RightHandPinky4
											{
												OFFSET -2.115768 -0.000031 -0.003680
												CHANNELS 6 Xposition Yposition Zposition Xrotation Yrotation Zrotation
												End Site
												{
													OFFSET -211.577087 0.000000 -0.350686
												}
											}
										}
									}
								}
							}
						}
					}
				}
				JOINT mixamorig:LeftShoulder
				{
					OFFSET 4.570447 11.014725 -2.160855
					CHANNELS 6 Xposition Yposition Zposition Xrotation Yrotation Zrotation
					JOINT mixamorig:LeftArm
					{
						OFFSET 10.592371 -0.524597 -2.232119
						CHANNELS 6 Xposition Yposition Zposition Xrotation Yrotation Zrotation
						JOINT mixamorig:LeftForeArm
						{
							OFFSET 27.841532 -0.000031 0.000026
							CHANNELS 6 Xposition Yposition Zposition Xrotation Yrotation Zrotation
							JOINT mixamorig:LeftHand
							{
								OFFSET 28.328846 -0.000061 0.000022
								CHANNELS 6 Xposition Yposition Zposition Xrotation Yrotation Zrotation
								JOINT mixamorig:LeftHandThumb1
								{
									OFFSET 2.466141 -1.576172 2.681732
									CHANNELS 6 Xposition Yposition Zposition Xrotation Yrotation Zrotation
									JOINT mixamorig:LeftHandThumb2
									{
										OFFSET 3.217812 -1.872070 1.916482
										CHANNELS 6 Xposition Yposition Zposition Xrotation Yrotation Zrotation
										JOINT mixamorig:LeftHandThumb3
										{
											OFFSET 2.656029 -1.528778 1.514513
											CHANNELS 6 Xposition Yposition Zposition Xrotation Yrotation Zrotation
											JOINT mixamorig:LeftHandThumb4
											{
												OFFSET 2.020889 -1.154053 1.115139
												CHANNELS 6 Xposition Yposition Zposition Xrotation Yrotation Zrotation
												End Site
												{
													OFFSET 190.885437 -115.081749 130.048782
												}
											}
										}
									}
								}
								JOINT mixamorig:LeftHandIndex1
								{
									OFFSET 9.109314 -0.518021 2.259871
									CHANNELS 6 Xposition Yposition Zposition Xrotation Yrotation Zrotation
									JOINT mixamorig:LeftHandIndex2
									{
										OFFSET 3.699989 0.000000 -0.000322
										CHANNELS 6 Xposition Yposition Zposition Xrotation Yrotation Zrotation
										JOINT mixamorig:LeftHandIndex3
										{
											OFFSET 2.850006 0.000000 0.000352
											CHANNELS 6 Xposition Yposition Zposition Xrotation Yrotation Zrotation
											JOINT mixamorig:LeftHandIndex4
											{
												OFFSET 2.774864 -0.000031 -0.000027
												CHANNELS 6 Xposition Yposition Zposition Xrotation Yrotation Zrotation
												End Site
												{
													OFFSET 277.486267 0.000000 -0.009857
												}
											}
										}
									}
								}
								JOINT mixamorig:LeftHandMiddle1
								{
									OFFSET 9.533394 0.000061 0.000044
									CHANNELS 6 Xposition Yposition Zposition Xrotation Yrotation Zrotation
									JOINT mixamorig:LeftHandMiddle2
									{
										OFFSET 3.699989 -0.000015 -0.000231
										CHANNELS 6 Xposition Yposition Zposition Xrotation Yrotation Zrotation
										JOINT mixamorig:LeftHandMiddle3
										{
											OFFSET 2.949997 -0.000015 -0.000059
											CHANNELS 6 Xposition Yposition Zposition Xrotation Yrotation Zrotation
											JOINT mixamorig:LeftHandMiddle4
											{
												OFFSET 2.952896 0.000031 0.000063
												CHANNELS 6 Xposition Yposition Zposition Xrotation Yrotation Zrotation
												End Site
												{
													OFFSET 295.289337 0.000000 0.022810
												}
											}
										}
									}
								}
								JOINT mixamorig:LeftHandRing1
								{
									OFFSET 9.104523 -0.042999 -1.865074
									CHANNELS 6 Xposition Yposition Zposition Xrotation Yrotation Zrotation
									JOINT mixamorig:LeftHandRing2
									{
										OFFSET 3.150009 -0.000031 0.000043
										CHANNELS 6 Xposition Yposition Zposition Xrotation Yrotation Zrotation
										JOINT mixamorig:LeftHandRing3
										{
											OFFSET 2.949982 -0.000015 0.000040
											CHANNELS 6 Xposition Yposition Zposition Xrotation Yrotation Zrotation
											JOINT mixamorig:LeftHandRing4
											{
												OFFSET 2.644348 0.000000 0.000057
												CHANNELS 6 Xposition Yposition Zposition Xrotation Yrotation Zrotation
												End Site
												{
													OFFSET 264.434631 0.000000 0.012105
												}
											}
										}
									}
								}
								JOINT mixamorig:LeftHandPinky1
								{
									OFFSET 8.077789 -0.486847 -3.806259
									CHANNELS 6 Xposition Yposition Zposition Xrotation Yrotation Zrotation
									JOINT mixamorig:LeftHandPinky2
									{
										OFFSET 3.599953 0.000031 0.014727
										CHANNELS 6 Xposition Yposition Zposition Xrotation Yrotation Zrotation
										JOINT mixamorig:LeftHandPinky3
										{
											OFFSET 2.100021 0.000015 0.007705
											CHANNELS 6 Xposition Yposition Zposition Xrotation Yrotation Zrotation
											JOINT mixamorig:LeftHandPinky4
											{
												OFFSET 2.125504 0.000031 0.007517
												CHANNELS 6 Xposition Yposition Zposition Xrotation Yrotation Zrotation
												End Site
												{
													OFFSET 212.550781 0.000000 0.625752
												}
											}
										}
									}
								}
							}
						}
					}
				}
			}
		}
	}
	JOINT mixamorig:RightUpLeg
	{
		OFFSET -8.207787 -6.751648 -1.599560
		CHANNELS 6 Xposition Yposition Zposition Xrotation Yrotation Zrotation
		JOINT mixamorig:RightLeg
		{
			OFFSET -0.000002 -44.370117 0.345942
			CHANNELS 6 Xposition Yposition Zposition Xrotation Yrotation Zrotation
			JOINT mixamorig:RightFoot
			{
				OFFSET 0.000003 -44.423679 -3.043532
				CHANNELS 6 Xposition Yposition Zposition Xrotation Yrotation Zrotation
				JOINT mixamorig:RightToeBase
				{
					OFFSET -0.000002 -8.728671 10.710558
					CHANNELS 6 Xposition Yposition Zposition Xrotation Yrotation Zrotation
					JOINT mixamorig:RightToe_End
					{
						OFFSET -0.000001 -0.000679 9.278119
						CHANNELS 6 Xposition Yposition Zposition Xrotation Yrotation Zrotation
						End Site
						{
							OFFSET 0.000000 -0.067690 927.812134
						}
					}
				}
			}
		}
	}
	JOINT mixamorig:LeftUpLeg
	{
		OFFSET 8.207793 -6.751686 -1.599556
		CHANNELS 6 Xposition Yposition Zposition Xrotation Yrotation Zrotation
		JOINT mixamorig:LeftLeg
		{
			OFFSET -0.000004 -44.370014 0.346954
			CHANNELS 6 Xposition Yposition Zposition Xrotation Yrotation Zrotation
			JOINT mixamorig:LeftFoot
			{
				OFFSET -0.000001 -44.423672 -3.044401
				CHANNELS 6 Xposition Yposition Zposition Xrotation Yrotation Zrotation
				JOINT mixamorig:LeftToeBase
				{
					OFFSET -0.000002 -8.728669 10.710558
					CHANNELS 6 Xposition Yposition Zposition Xrotation Yrotation Zrotation
					JOINT mixamorig:LeftToe_End
					{
						OFFSET -0.000003 -0.000679 9.278133
						CHANNELS 6 Xposition Yposition Zposition Xrotation Yrotation Zrotation
						End Site
						{
							OFFSET 0.000000 -0.068021 927.813477
						}
					}
				}
			}
		}
	}
}
MOTION
Frames: 3
Frame Time: 0.033333
0.000006 104.270477 1.554256 0.000010 0.000003 -0.000113 -0.000005 10.181587 0.131522 0.000001 -0.000003 0.000084 -0.000000 9.893967 -1.470711 0.000001 0.000000 -0.000000 -0.000000 9.220802 -1.370642 0.000000 -0.000000 -0.000000 0.000001 16.740433 -2.049030 0.000000 -0.000000 -0.000000 0.000000 9.617859 1.685014 0.000000 0.000000 0.000000 0.000002 22.037384 7.501101 0.000000 -0.000000 0.000000 -4.569968 11.014880 -2.160881 0.000008 0.000001 -0.000038 -10.592881 -0.524759 -2.231919 75.194659 27.338551 -21.214477 -27.841515 0.000016 0.000533 -54.824586 108.753031 71.792344 -28.328835 0.000007 0.000019 -0.000321 -0.000043 0.000009 -2.464457 -1.573847 2.682360 -38.527232 -159.942745 12.141558 -3.215255 -1.872575 1.924661 155.559348 32.215520 6.676313 -2.654947 -1.527891 1.513084 145.748765 27.085674 -38.144551 -2.018830 -1.151999 1.108054 -0.000000 -0.000005 0.000000 -9.108392 -0.517561 2.260145 103.666016 17.299452 -21.967179 -3.700068 0.000325 0.001533 100.097064 12.359663 -14.703114 -2.850076 0.000381 -0.000253 98.422807 9.029240 -10.456232 -2.772167 -0.000002 -0.000021 0.000002 -0.000001 -0.000001 -9.532615 0.000265 0.000255 95.497956 17.795824 -19.716545 -3.700057 0.000336 0.003961 93.693502 10.642502 -11.247987 -2.950059 0.000328 -0.001829 92.741429 9.567498 -10.026982 -2.946614 0.000002 -0.000154 -0.000002 0.000000 0.000002 -9.103714 -0.042758 -1.864870 92.004731 19.407742 -20.038054 -3.379324 0.000333 -0.000793 94.681933 9.228247 -10.029784 -2.889753 0.000367 0.000640 98.625883 5.001305 -5.867459 -2.638801 0.000001 0.000941 -0.000001 0.000001 -0.000000 -8.076773 -0.486397 -3.806042 79.884199 20.028562 -16.691473 -3.600047 0.000272 -0.003536 86.133590 10.235110 -9.230082 -2.100007 0.000313 -0.005508 89.521363 5.240789 -4.980964 -2.115757 -0.000038 -0.003680 0.000003 -0.000005 -0.000001 4.570446 11.014691 -2.160851 -0.000018 0.000010 -0.000021 10.592397 -0.524470 -2.232346 75.173670 -11.955987 9.216695 27.841825 0.000069 -0.000212 105.098033 -69.361425 84.186077 28.328833 -0.000028 0.000022 0.000023 -0.000089 -0.000000 2.465897 -1.576093 2.681901 -52.173339 171.379446 23.243397 3.217841 -1.871766 1.916375 154.342850 -28.957311 12.392988 2.656107 -1.528658 1.514467 135.172422 -29.101513 47.766798 2.020891 -1.154036 1.115160 -0.000000 0.000004 0.000002 9.109381 -0.517847 2.259738 84.925848 -14.507605 13.276835 3.700045 0.000147 -0.000444 82.268659 -15.276575 13.376676 2.850054 0.000169 0.000199 80.067494 -13.184061 11.089252 2.774886 -0.000027 -0.000023 0.000002 0.000003 0.000000 9.533458 0.000226 -0.000098 87.780539 -12.500643 12.020880 3.700059 0.000173 -0.000387 87.025319 -13.105447 12.444874 2.950075 0.000158 -0.000198 85.849836 -16.833537 15.674364 2.952870 -0.000033 0.000058 -0.000001 0.000000 -0.000002 9.104600 -0.042825 -1.865226 88.388911 -12.471286 12.129892 3.150057 0.000195 -0.000090 89.866028 -12.413479 12.386532 2.950022 0.000169 -0.000070 91.347332 -14.610791 14.956443 2.644329 0.000016 0.000055 0.000001 -0.000000 -0.000001 8.077847 -0.486729 -3.806394 76.177394 -15.997674 13.033320 3.600013 0.000173 0.014563 77.969082 -12.255969 10.342547 2.100026 0.000185 0.007546 80.986202 -11.748523 10.453359 2.125487 0.000001 0.007507 0.000000 0.000001 0.000001 -8.207786 -6.751667 -1.599560 -0.077001 -0.000003 0.000080 -0.000002 -44.370110 0.345938 0.153719 -0.000000 -0.000000 0.000000 -44.423679 -3.043532 -0.076700 0.000000 -0.000002 -0.000006 -8.728667 10.710559 -0.000009 -0.000000 -0.000000 -0.000001 -0.000679 9.278123 0.000000 -0.000000 -0.000000 8.207792 -6.751710 -1.599556 -0.074518 -0.000003 0.000081 -0.000002 -44.370014 0.346960 0.148822 0.000002 0.000000 -0.000001 -44.423664 -3.044403 -0.074314 0.000000 -0.000002 -0.000004 -8.728671 10.710558 0.000007 -0.000000 -0.000000 0.000000 -0.000680 9.278137 -0.000000 0.000000 -0.000001 
0.000006 104.270477 1.554256 0.000010 0.000003 -0.000113 -0.000005 10.181587 0.131522 0.000001 -0.000003 0.000084 -0.000000 9.893967 -1.470711 0.000001 0.000000 -0.000000 -0.000000 9.220802 -1.370642 0.000000 -0.000000 -0.000000 0.000001 16.740433 -2.049030 0.000000 -0.000000 -0.000000 0.000000 9.617859 1.685014 0.000000 0.000000 0.000000 0.000002 22.037384 7.501101 0.000000 -0.000000 0.000000 -4.569968 11.014880 -2.160881 0.000008 0.000001 -0.000038 -10.592876 -0.524741 -2.231922 75.711438 24.231530 -18.945010 -27.841524 0.000014 0.000530 -51.838260 107.715580 67.281400 -28.328833 0.000020 0.000028 -0.000317 -0.000047 0.000008 -2.464399 -1.573842 2.682356 -40.487722 -157.732414 6.745926 -3.215262 -1.872557 1.924635 153.045032 32.885930 13.543895 -2.654941 -1.527882 1.513071 146.156541 27.382442 -33.814453 -2.018842 -1.152006 1.108062 -0.000001 0.000002 0.000002 -9.108377 -0.517570 2.260147 104.131876 16.751952 -21.454536 -3.700073 0.000318 0.001534 100.511534 13.918949 -16.674245 -2.850082 0.000358 -0.000251 97.919832 11.795311 -13.533497 -2.772155 -0.000016 -0.000018 0.000001 -0.000001 -0.000000 -9.532608 0.000259 0.000241 93.634449 18.219074 -19.545373 -3.700062 0.000328 0.003979 93.360701 12.220821 -12.852995 -2.950063 0.000335 -0.001785 96.054200 11.768086 -13.063518 -2.946623 0.000015 -0.000156 0.000001 -0.000000 -0.000001 -9.103714 -0.042775 -1.864861 90.978639 21.050291 -21.357744 -3.379330 0.000318 -0.000814 92.053294 9.259352 -9.613599 -2.889757 0.000362 0.000653 99.691003 6.431984 -7.673865 -2.638806 -0.000018 0.000941 -0.000002 0.000002 0.000002 -8.076769 -0.486405 -3.806047 81.084563 22.886098 -19.508689 -3.600049 0.000271 -0.003540 83.461961 10.332533 -8.895918 -2.100019 0.000319 -0.005514 88.463237 5.338067 -4.984316 -2.115773 -0.000042 -0.003674 -0.000003 0.000004 -0.000005 4.570446 11.014691 -2.160851 -0.000018 0.000010 -0.000021 10.592380 -0.524487 -2.232315 74.356322 -4.334872 3.288505 27.841835 0.000062 -0.000207 106.971718 -71.356209 88.244125 28.328833 -0.000029 0.000022 0.000016 -0.000089 -0.000000 2.466053 -1.576150 2.681909 -33.611883 161.120037 -23.549232 3.217853 -1.871781 1.916393 161.461246 -25.858972 26.346119 2.656116 -1.528663 1.514468 137.732499 -28.208936 55.242160 2.020906 -1.154092 1.115143 0.000006 -0.000000 0.000003 9.109383 -0.517856 2.259747 86.758470 -17.735428 16.761761 3.700027 0.000151 -0.000458 84.170511 -13.104538 11.859576 2.850036 0.000184 0.000217 84.110727 -10.397268 9.383591 2.774886 -0.000046 -0.000030 0.000000 -0.000002 0.000001 9.533482 0.000205 -0.000085 87.913516 -17.344220 16.724118 3.700053 0.000176 -0.000377 88.877331 -12.070526 11.835360 2.950055 0.000174 -0.000183 90.135199 -11.621144 11.651325 2.952881 -0.000047 0.000065 -0.000001 0.000001 -0.000000 9.104608 -0.042846 -1.865208 88.231468 -17.581228 17.056657 3.150057 0.000191 -0.000096 91.892320 -13.035478 13.471208 2.950022 0.000198 -0.000083 94.178248 -11.192266 12.035603 2.644313 0.000015 0.000061 0.000000 -0.000001 -0.000001 8.077861 -0.486732 -3.806398 79.937474 -21.157196 18.311191 3.600017 0.000165 0.014582 80.054783 -17.907072 15.528199 2.100054 0.000196 0.007560 82.274772 -12.795931 11.614716 2.125497 -0.000017 0.007507 0.000001 0.000001 -0.000001 -8.207786 -6.751667 -1.599560 -0.077001 -0.000003 0.000080 -0.000002 -44.370110 0.345938 0.153719 -0.000000 -0.000000 0.000000 -44.423679 -3.043532 -0.076700 0.000000 -0.000002 -0.000006 -8.728667 10.710559 -0.000009 -0.000000 -0.000000 -0.000001 -0.000679 9.278123 0.000000 -0.000000 -0.000000 8.207792 -6.751710 -1.599556 -0.074518 -0.000003 0.000081 -0.000002 -44.370014 0.346960 0.148822 0.000002 0.000000 -0.000001 -44.423664 -3.044403 -0.074314 0.000000 -0.000002 -0.000004 -8.728671 10.710558 0.000007 -0.000000 -0.000000 0.000000 -0.000680 9.278137 -0.000000 0.000000 -0.000001 
0.000006 104.270477 1.554256 0.000010 0.000003 -0.000113 -0.000005 10.181587 0.131522 0.000001 -0.000003 0.000084 -0.000000 9.893967 -1.470711 0.000001 0.000000 -0.000000 -0.000000 9.220802 -1.370642 0.000000 -0.000000 -0.000000 0.000001 16.740433 -2.049030 0.000000 -0.000000 -0.000000 0.000000 9.617859 1.685014 0.000000 0.000000 0.000000 0.000002 22.037384 7.501101 0.000000 -0.000000 0.000000 -4.569968 11.014880 -2.160881 0.000008 0.000001 -0.000038 -10.592874 -0.524783 -2.231887 75.506245 32.747386 -25.635843 -27.841526 0.000010 0.000545 -50.552709 105.036500 63.247791 -28.328817 0.000022 0.000029 -0.000317 -0.000043 0.000003 -2.464400 -1.573856 2.682356 -40.256025 -157.151219 7.064062 -3.215267 -1.872563 1.924656 153.391200 32.636256 11.492784 -2.654963 -1.527897 1.513060 145.003195 27.449470 -35.478765 -2.018831 -1.152021 1.108056 -0.000002 0.000001 0.000004 -9.108383 -0.517556 2.260142 104.204453 16.891061 -21.658263 -3.700076 0.000305 0.001533 100.855195 14.371526 -17.318506 -2.850108 0.000358 -0.000242 98.941608 12.298553 -14.363572 -2.772169 -0.000015 -0.000023 0.000001 -0.000001 -0.000001 -9.532597 0.000257 0.000271 94.052606 17.832956 -19.272688 -3.700080 0.000309 0.003969 93.538355 12.074851 -12.737766 -2.950053 0.000342 -0.001787 96.508387 12.044137 -13.475650 -2.946639 0.000003 -0.000157 0.000003 -0.000002 -0.000000 -9.103703 -0.042767 -1.864875 90.873133 20.216998 -20.474397 -3.379316 0.000303 -0.000811 91.827064 8.909091 -9.214334 -2.889755 0.000366 0.000663 99.403684 6.655866 -7.898879 -2.638838 -0.000005 0.000938 0.000000 -0.000002 -0.000001 -8.076767 -0.486420 -3.806032 80.774985 22.229530 -18.840460 -3.600041 0.000254 -0.003542 82.753746 10.086079 -8.569699 -2.100029 0.000321 -0.005504 87.854435 5.584308 -5.168137 -2.115777 -0.000038 -0.003680 -0.000002 -0.000000 -0.000003 4.570446 11.014691 -2.160851 -0.000018 0.000010 -0.000021 10.592426 -0.524462 -2.232370 73.632998 -21.290308 16.017656 27.841829 0.000065 -0.000191 109.206214 -73.285655 92.618998 28.328850 -0.000027 0.000019 0.000023 -0.000090 -0.000001 2.466064 -1.576162 2.681902 -27.816642 158.612948 -34.249287 3.217852 -1.871816 1.916401 160.458192 -24.830407 31.486052 2.656103 -1.528655 1.514483 138.295539 -28.059240 53.646058 2.020887 -1.154072 1.115143 0.000001 -0.000000 0.000001 9.109366 -0.517850 2.259725 88.473442 -18.565692 18.073343 3.700051 0.000154 -0.000446 86.234902 -13.677744 12.830679 2.850055 0.000190 0.000197 85.585289 -10.859238 10.056294 2.774881 -0.000030 -0.000025 0.000000 0.000000 -0.000000 9.533453 0.000207 -0.000085 88.752708 -17.963584 17.573996 3.700053 0.000191 -0.000379 90.220590 -12.141047 12.184845 2.950043 0.000180 -0.000204 91.004314 -11.399971 11.603159 2.952877 -0.000030 0.000065 0.000004 -0.000000 0.000001 9.104588 -0.042840 -1.865232 88.901018 -18.070719 17.734834 3.150064 0.000206 -0.000096 92.570817 -13.323703 13.931399 2.950026 0.000201 -0.000082 94.100834 -11.021445 11.836177 2.644315 0.000015 0.000061 -0.000001 -0.000002 0.000001 8.077843 -0.486724 -3.806398 81.164272 -21.251230 18.787197 3.600024 0.000162 0.014583 81.058445 -18.158290 16.019947 2.100053 0.000190 0.007565 82.773662 -12.789261 11.710442 2.125511 -0.000015 0.007518 0.000002 0.000002 0.000000 -8.207786 -6.751667 -1.599560 -0.077001 -0.000003 0.000080 -0.000002 -44.370110 0.345938 0.153719 -0.000000 -0.000000 0.000000 -44.423679 -3.043532 -0.076700 0.000000 -0.000002 -0.000006 -8.728667 10.710559 -0.000009 -0.000000 -0.000000 -0.000001 -0.000679 9.278123 0.000000 -0.000000 -0.000000 8.207792 -6.751710 -1.599556 -0.074518 -0.000003 0.000081 -0.000002 -44.370014 0.346960 0.148822 0.000002 0.000000 -0.000001 -44.423664 -3.044403 -0.074314 0.000000 -0.000002 -0.000004 -8.728671 10.710558 0.000007 -0.000000 -0.000000 0.000000 -0.000680 9.278137 -0.000000 0.000000 -0.000001 
